<svg width="96" height="39" viewBox="0 0 96 39" fill="none" xmlns="http://www.w3.org/2000/svg">
<path d="M39.2105 11.3751H39.2098C39.0181 8.7113 38.9868 5.9523 37.3231 4.02208C35.9966 2.48213 34.5485 1.6479 32.8229 1.14614C29.5703 0.201766 26.693 0.284713 23.3785 0.190888C16.1254 -0.0144395 9.16264 -0.45161 4.67535 1.49696C0.109192 2.99272 -0.19676 13.9138 0.0683982 18.5228C0.256049 21.7911 0.209137 26.5925 1.64371 29.6438C3.57392 33.7504 7.86065 33.7375 11.9142 34.2331C13.8457 34.4697 19.6955 34.5343 21.7243 34.5411C22.5307 35.8302 24.7709 36.7773 25.7479 37.3667C26.7249 37.9562 29.9449 38.7795 30.1808 38.0446C30.4168 37.3096 28.9162 35.8465 29.4629 33.781C32.1763 33.2316 32.9636 33.4947 34.8211 32.906C37.6325 32.0153 38.672 28.6974 39.1636 25.1484C39.6171 21.8747 39.4478 14.6699 39.2112 11.3751H39.2105Z" fill="white"/>
<path d="M59.7839 22.0896V22.0794C59.7839 20.0581 58.8715 18.3454 57.2153 17.2569C57.1371 17.2039 57.0929 17.1168 57.099 17.0223C57.1031 16.9516 57.1405 16.887 57.1929 16.8394C58.3677 15.7795 58.9885 14.3449 58.9885 12.6894C58.9885 9.10566 56.1064 6.50439 52.1351 6.50439H43.9152C43.6582 6.50439 43.4502 6.71244 43.4502 6.96944V27.9577C43.4502 28.2147 43.6582 28.4228 43.9152 28.4228H52.7708C56.8284 28.4228 59.7778 25.759 59.7839 22.0882V22.0896ZM47.8375 10.9767C47.8375 10.8401 47.9484 10.7292 48.085 10.7292H52.1222C53.1121 10.7292 53.8661 11.3038 54.1401 12.1999C54.3448 12.8689 54.2204 13.593 53.7995 14.1627C53.3705 14.7433 52.6838 15.0364 51.9631 15.0364H48.085C47.9484 15.0364 47.8375 14.9255 47.8375 14.7889V10.9767ZM47.8205 23.9668V19.8364C47.8205 19.7385 47.8777 19.6542 47.9599 19.6141L52.4561 19.5882C53.7988 19.5882 54.7364 20.5394 54.7364 21.9012C54.7364 23.2631 53.7988 24.2142 52.4561 24.2142H48.068C47.9314 24.2142 47.8205 24.1034 47.8205 23.9668Z" fill="white"/>
<path d="M69.5643 12.3595C65.043 12.3595 61.5007 15.8875 61.5007 20.3917C61.5007 24.896 65.0423 28.424 69.5643 28.424C74.0862 28.424 77.6278 24.896 77.6278 20.3917C77.6278 15.8875 74.0862 12.3595 69.5643 12.3595ZM69.5643 24.2427C67.3866 24.2427 65.8065 22.6232 65.8065 20.3911C65.8065 18.159 67.3866 16.5402 69.5643 16.5402C71.742 16.5402 73.322 18.1597 73.322 20.3911C73.322 22.6225 71.742 24.2427 69.5643 24.2427Z" fill="white"/>
<path d="M93.1659 26.109C94.6385 24.6159 95.449 22.5851 95.449 20.3911C95.449 18.197 94.6378 16.1662 93.1659 14.6732C91.6946 13.1808 89.693 12.3588 87.5296 12.3588C86.2908 12.3588 84.9881 12.6212 83.8942 13.1393C83.8445 13.1645 83.7745 13.1624 83.7208 13.1291C83.6685 13.0951 83.6365 13.0373 83.6365 12.9768V6.89179C83.6365 6.70822 83.4876 6.55933 83.304 6.55933H79.689C79.5055 6.55933 79.3457 6.70822 79.3457 6.89179V20.3924C79.3457 24.8817 82.9838 28.4015 87.484 28.4247H87.5289C89.6916 28.4247 91.6932 27.6027 93.1652 26.1103L93.1659 26.109ZM83.6515 20.3911C83.6515 18.1596 85.3512 16.5401 87.5289 16.5401C89.7066 16.5401 91.1425 18.0876 91.1425 20.3911C91.1425 22.6945 89.6903 24.242 87.5289 24.242C85.3675 24.242 83.6515 22.6225 83.6515 20.3911Z" fill="white"/>
<path d="M18.7873 20.4291C18.943 21.5346 19.0599 26.4019 19.2272 27.9527C19.2516 28.2838 19.3455 28.4701 19.68 28.4633C19.9458 28.4878 20.4279 28.5001 21.1118 28.5001C21.9209 28.5035 22.7354 28.4803 23.4099 28.4769C24.5691 28.4871 24.0109 26.3074 24.0224 25.1094C23.9109 22.7992 23.8396 17.101 23.7131 14.4977C23.6961 13.951 23.6206 9.71463 23.5778 8.7553C23.556 8.34465 23.6349 7.42271 23.5003 7.13172C23.3378 6.86724 22.6144 6.78633 22.1997 6.81557C21.1288 6.81557 20.2422 6.82644 19.3869 6.96582C18.6248 7.08888 18.3358 7.37988 18.3209 8.03801C18.3161 8.23586 18.3311 9.52698 18.3474 10.8936C18.3617 12.1588 18.3834 13.5023 18.3861 14.2155C18.3583 14.9321 17.1372 14.5616 16.4491 14.652C15.3219 14.6275 12.4663 14.722 11.9013 14.7513C11.5553 14.7424 11.5219 14.446 11.4506 14.1067C11.2921 12.5518 11.1052 10.1545 11.0297 8.52142C11.0039 7.62804 10.959 6.88627 10.6707 6.84004C9.92964 6.70066 6.5023 6.7469 6.30513 7.12152C6.13244 7.63144 6.18683 8.83553 6.19839 9.70375C6.23442 14.1285 6.62808 19.4962 6.68927 23.7646C6.73414 25.0625 6.76542 27.7359 6.7661 27.8766C6.7695 28.3212 6.81913 28.4389 7.26174 28.4871C8.64328 28.564 10.3362 28.4579 11.7225 28.4967C12.4357 28.5415 12.0917 27.2171 12.1726 26.6888C12.1869 25.5078 12.1366 23.6035 12.0509 22.5857C11.9945 20.2618 11.3676 20.287 13.7336 20.1687C14.1456 20.1367 16.0854 20.0687 17.2269 20.0422C17.9598 20.0986 18.5289 19.7437 18.7852 20.4284L18.7873 20.4291Z" fill="#000712"/>
<path fill-rule="evenodd" clip-rule="evenodd" d="M32.7769 8.63028C32.628 7.29225 31.6333 6.39343 30.3021 6.39343C29.9309 6.39343 29.5502 6.46278 29.1708 6.59944C28.9641 6.67423 28.7744 6.77281 28.6078 6.89451C28.6051 6.89587 28.6031 6.89791 28.6004 6.89927C27.8117 7.46766 27.3861 8.41543 27.4908 9.37476C27.5887 10.2688 28.1251 10.9861 28.9641 11.3437C28.9668 11.3444 28.9689 11.3458 28.9709 11.3464C29.3652 11.5137 29.85 11.6096 30.3014 11.6096C30.7067 11.6096 31.2859 11.5348 31.7415 11.1765C32.5913 10.5061 32.9014 9.74394 32.7769 8.63028Z" fill="#000712"/>
<path d="M32.6742 18.1277C32.6742 17.1024 32.6477 16.3736 32.6708 15.3082C32.7585 14.1388 31.4681 14.3883 30.5733 14.3529H30.5727C29.8819 14.3529 29.1986 14.3672 28.5391 14.3665C28.1278 14.3835 27.9367 14.4033 27.9592 14.7582C27.7382 19.2026 27.9306 22.0432 27.8538 26.2429C27.7885 29.0944 27.8715 28.2581 30.3626 28.4186C30.9194 28.4274 31.9916 28.5369 32.422 28.32C32.6389 28.1731 32.5845 27.9365 32.6368 27.6176C32.613 23.4982 32.6429 23.1698 32.6735 18.1263L32.6742 18.1277Z" fill="#000712"/>
</svg>
